<svg width="147" height="18" viewBox="0 0 147 18" fill="none" xmlns="http://www.w3.org/2000/svg">
<path d="M0.0319824 8.568C0.0319824 6.936 0.399983 5.472 1.13598 4.176C1.87198 2.864 2.87198 1.84 4.13598 1.104C5.41598 0.368 6.83198 0 8.38398 0C10.208 0 11.8 0.44 13.16 1.32C14.52 2.2 15.512 3.448 16.136 5.064H13.52C13.056 4.056 12.384 3.28 11.504 2.736C10.64 2.192 9.59998 1.92 8.38398 1.92C7.21598 1.92 6.16798 2.192 5.23998 2.736C4.31198 3.28 3.58398 4.056 3.05598 5.064C2.52798 6.056 2.26398 7.224 2.26398 8.568C2.26398 9.896 2.52798 11.064 3.05598 12.072C3.58398 13.064 4.31198 13.832 5.23998 14.376C6.16798 14.92 7.21598 15.192 8.38398 15.192C9.59998 15.192 10.64 14.928 11.504 14.4C12.384 13.856 13.056 13.08 13.52 12.072H16.136C15.512 13.672 14.52 14.912 13.16 15.792C11.8 16.656 10.208 17.088 8.38398 17.088C6.83198 17.088 5.41598 16.728 4.13598 16.008C2.87198 15.272 1.87198 14.256 1.13598 12.96C0.399983 11.664 0.0319824 10.2 0.0319824 8.568Z" fill="#C6549C"/>
<path d="M21.571 15.168H27.427V16.944H19.387V0.216H21.571V15.168Z" fill="#C6549C"/>
<path d="M39.6344 13.224H32.3384L30.9944 16.944H28.6904L34.7384 0.312H37.2584L43.2824 16.944H40.9784L39.6344 13.224ZM39.0104 11.448L35.9864 3L32.9624 11.448H39.0104Z" fill="#C6549C"/>
<path d="M48.0543 0.216V10.8C48.0543 12.288 48.4143 13.392 49.1343 14.112C49.8703 14.832 50.8863 15.192 52.1823 15.192C53.4623 15.192 54.4623 14.832 55.1823 14.112C55.9183 13.392 56.2863 12.288 56.2863 10.8V0.216H58.4703V10.776C58.4703 12.168 58.1903 13.344 57.6303 14.304C57.0703 15.248 56.3103 15.952 55.3503 16.416C54.4063 16.88 53.3423 17.112 52.1583 17.112C50.9743 17.112 49.9023 16.88 48.9423 16.416C47.9983 15.952 47.2463 15.248 46.6863 14.304C46.1423 13.344 45.8703 12.168 45.8703 10.776V0.216H48.0543Z" fill="#C6549C"/>
<path d="M67.3216 0.216C69.1456 0.216 70.7216 0.559999 72.0496 1.248C73.3936 1.92 74.4176 2.888 75.1216 4.152C75.8416 5.416 76.2016 6.904 76.2016 8.616C76.2016 10.328 75.8416 11.816 75.1216 13.08C74.4176 14.328 73.3936 15.288 72.0496 15.96C70.7216 16.616 69.1456 16.944 67.3216 16.944H62.1136V0.216H67.3216ZM67.3216 15.144C69.4816 15.144 71.1296 14.576 72.2656 13.44C73.4016 12.288 73.9696 10.68 73.9696 8.616C73.9696 6.536 73.3936 4.912 72.2416 3.744C71.1056 2.576 69.4656 1.992 67.3216 1.992H64.2976V15.144H67.3216Z" fill="#C6549C"/>
<path d="M81.2664 0.216V16.944H79.0824V0.216H81.2664Z" fill="#C6549C"/>
<path d="M92.5726 17.112C91.0206 17.112 89.6046 16.752 88.3246 16.032C87.0446 15.296 86.0286 14.28 85.2766 12.984C84.5406 11.672 84.1726 10.2 84.1726 8.568C84.1726 6.936 84.5406 5.472 85.2766 4.176C86.0286 2.864 87.0446 1.848 88.3246 1.128C89.6046 0.391999 91.0206 0.0239992 92.5726 0.0239992C94.1406 0.0239992 95.5646 0.391999 96.8446 1.128C98.1246 1.848 99.1326 2.856 99.8686 4.152C100.605 5.448 100.973 6.92 100.973 8.568C100.973 10.216 100.605 11.688 99.8686 12.984C99.1326 14.28 98.1246 15.296 96.8446 16.032C95.5646 16.752 94.1406 17.112 92.5726 17.112ZM92.5726 15.216C93.7406 15.216 94.7886 14.944 95.7166 14.4C96.6606 13.856 97.3966 13.08 97.9246 12.072C98.4686 11.064 98.7406 9.896 98.7406 8.568C98.7406 7.224 98.4686 6.056 97.9246 5.064C97.3966 4.056 96.6686 3.28 95.7406 2.736C94.8126 2.192 93.7566 1.92 92.5726 1.92C91.3886 1.92 90.3326 2.192 89.4046 2.736C88.4766 3.28 87.7406 4.056 87.1966 5.064C86.6686 6.056 86.4046 7.224 86.4046 8.568C86.4046 9.896 86.6686 11.064 87.1966 12.072C87.7406 13.08 88.4766 13.856 89.4046 14.4C90.3486 14.944 91.4046 15.216 92.5726 15.216Z" fill="#C6549C"/>
<path d="M109.064 0.216C110.888 0.216 112.464 0.559999 113.792 1.248C115.136 1.92 116.16 2.888 116.864 4.152C117.584 5.416 117.944 6.904 117.944 8.616C117.944 10.328 117.584 11.816 116.864 13.08C116.16 14.328 115.136 15.288 113.792 15.96C112.464 16.616 110.888 16.944 109.064 16.944H103.856V0.216H109.064ZM109.064 15.144C111.224 15.144 112.872 14.576 114.008 13.44C115.144 12.288 115.712 10.68 115.712 8.616C115.712 6.536 115.136 4.912 113.984 3.744C112.848 2.576 111.208 1.992 109.064 1.992H106.04V15.144H109.064Z" fill="white"/>
<path d="M123.009 1.992V7.584H129.105V9.384H123.009V15.144H129.825V16.944H120.825V0.191999H129.825V1.992H123.009Z" fill="white"/>
<path d="M146.953 0.216L140.641 16.944H138.121L131.809 0.216H134.137L139.393 14.64L144.649 0.216H146.953Z" fill="white"/>
</svg>